<?xml version="1.0" standalone="no"?>
<!DOCTYPE svg PUBLIC "-//W3C//DTD SVG 20010904//EN"
 "http://www.w3.org/TR/2001/REC-SVG-20010904/DTD/svg10.dtd">
<svg version="1.0" xmlns="http://www.w3.org/2000/svg"
 width="512.000000pt" height="512.000000pt" viewBox="0 0 512.000000 512.000000"
 preserveAspectRatio="xMidYMid meet">
<metadata>
Created by potrace 1.14, written by Peter Selinger 2001-2017
</metadata>
<g transform="translate(0.000000,512.000000) scale(0.100000,-0.100000)"
fill="#000000" stroke="none">
<path d="M2332 5109 c-483 -43 -954 -230 -1352 -537 -109 -85 -347 -323 -432
-432 -203 -263 -357 -563 -444 -864 -230 -795 -68 -1633 444 -2296 85 -109
323 -347 432 -432 263 -203 563 -357 864 -444 795 -230 1633 -68 2296 444 109
85 347 323 432 432 203 263 357 563 444 864 230 795 68 1633 -444 2296 -85
109 -323 347 -432 432 -524 404 -1164 594 -1808 537z m548 -255 c672 -93 1277
-487 1647 -1072 118 -187 222 -432 278 -657 51 -204 68 -342 68 -565 0 -223
-17 -361 -68 -565 -103 -409 -306 -766 -610 -1070 -363 -363 -808 -585 -1320
-660 -164 -24 -466 -24 -630 0 -512 75 -957 297 -1320 660 -304 304 -507 661
-610 1070 -51 204 -68 342 -68 565 0 223 17 361 68 565 103 409 306 766 610
1070 193 193 386 332 620 445 424 205 873 277 1335 214z"/>
<path d="M1395 3541 c-50 -22 -96 -67 -121 -118 -18 -36 -19 -73 -19 -863 0
-790 1 -827 19 -863 43 -88 123 -137 221 -137 75 0 128 24 176 77 67 74 64 35
64 923 0 656 -3 812 -14 844 -18 51 -76 115 -126 137 -53 24 -147 24 -200 0z"/>
<path d="M3525 3541 c-50 -22 -108 -86 -126 -137 -11 -32 -14 -188 -14 -844 0
-888 -3 -849 64 -923 48 -53 101 -77 176 -77 98 0 178 49 221 137 18 36 19 73
19 863 0 790 -1 827 -19 863 -25 51 -71 96 -121 118 -53 24 -147 24 -200 0z"/>
<path d="M1054 3156 c-86 -40 -134 -116 -134 -212 l0 -42 -54 2 c-65 1 -105
-23 -123 -75 -8 -23 -12 -113 -12 -269 0 -156 4 -246 12 -269 18 -52 58 -76
123 -75 l54 2 0 -42 c0 -61 16 -106 52 -150 29 -35 114 -86 146 -86 9 0 12
131 12 620 0 489 -3 620 -12 620 -7 0 -36 -11 -64 -24z"/>
<path d="M3990 2560 c0 -489 3 -620 13 -620 31 0 116 51 145 86 36 44 52 89
52 150 l0 42 54 -2 c65 -1 105 23 123 75 8 23 12 113 12 269 0 156 -4 246 -12
269 -18 52 -58 76 -123 75 l-54 -2 0 42 c0 61 -16 106 -52 150 -29 35 -114 86
-145 86 -10 0 -13 -131 -13 -620z"/>
<path d="M1860 2560 l0 -240 700 0 700 0 0 240 0 240 -700 0 -700 0 0 -240z"/>
</g>
</svg>
